<svg width="960" height="540" viewBox="0 0 960 540" xmlns="http://www.w3.org/2000/svg">
  <rect width="960" height="540" fill="#0D1524"/>
  <rect x="12" y="12" width="936" height="516" rx="10" fill="#152338" stroke="rgba(255,255,255,0.14)"/>
  <rect x="44" y="56" width="380" height="56" rx="8" fill="#111C2E" stroke="rgba(255,255,255,0.12)"/>
  <rect x="64" y="76" width="140" height="16" rx="6" fill="#7EE7FF"/>
  <rect x="220" y="76" width="180" height="16" rx="6" fill="#3B8EDF"/>
  <rect x="44" y="132" width="380" height="220" rx="10" fill="#172740" stroke="rgba(255,255,255,0.1)"/>
  <rect x="64" y="160" width="160" height="14" rx="6" fill="#9CB2CF"/>
  <rect x="64" y="188" width="320" height="12" rx="6" fill="#3B8EDF"/>
  <rect x="64" y="208" width="290" height="12" rx="6" fill="#3B8EDF"/>
  <rect x="64" y="228" width="250" height="12" rx="6" fill="#3B8EDF"/>
  <rect x="64" y="270" width="180" height="36" rx="8" fill="#3B8EDF"/>
  <rect x="258" y="270" width="126" height="36" rx="8" fill="#1A2D48" stroke="rgba(255,255,255,0.15)"/>
  <g transform="translate(484 74)">
    <rect x="0" y="0" width="416" height="392" rx="12" fill="#111C2E" stroke="rgba(255,255,255,0.1)"/>
    <path d="M72 324L162 198L198 228L122 344L72 324Z" fill="rgba(59,142,223,0.26)"/>
    <path d="M182 250L238 178L286 196L214 278L182 250Z" fill="rgba(126,231,255,0.25)"/>
    <path d="M248 290L286 226L320 240L278 308L248 290Z" fill="#7EE7FF"/>
    <path d="M126 292L94 232L112 166L178 148L236 196L222 266L170 302L126 292Z" fill="#1A2D48" stroke="rgba(255,255,255,0.14)"/>
    <path d="M156 172L172 182L166 204L144 208L132 192L138 176L156 172Z" fill="#3B8EDF"/>
    <path d="M202 214L218 226L214 248L192 256L176 242L180 220L202 214Z" fill="#3B8EDF"/>
    <rect x="26" y="24" width="188" height="10" rx="5" fill="#7EE7FF"/>
    <rect x="26" y="42" width="146" height="8" rx="4" fill="#9CB2CF"/>
  </g>
</svg>
