<svg width="720" height="420" viewBox="0 0 720 420" fill="none" xmlns="http://www.w3.org/2000/svg">
  <rect width="720" height="420" rx="10" fill="#111C2E"/>
  <rect x="7" y="7" width="706" height="406" rx="7" stroke="rgba(255,255,255,0.1)"/>

  <rect x="26" y="28" width="668" height="64" rx="4" fill="#152338" stroke="rgba(255,255,255,0.08)"/>
  <text x="42" y="54" fill="#DCEBFF" font-family="Inter, Segoe UI, sans-serif" font-size="16" font-weight="700">Rift Courier HUD Panel Placeholder</text>
  <text x="42" y="74" fill="#9CB2CF" font-family="Inter, Segoe UI, sans-serif" font-size="13">Show this as static weekly "system depth" proof on update pages.</text>

  <rect x="26" y="112" width="214" height="122" rx="4" fill="#172740" stroke="rgba(255,255,255,0.08)"/>
  <rect x="253" y="112" width="214" height="122" rx="4" fill="#172740" stroke="rgba(255,255,255,0.08)"/>
  <rect x="480" y="112" width="214" height="122" rx="4" fill="#172740" stroke="rgba(255,255,255,0.08)"/>

  <text x="42" y="136" fill="#9CB2CF" font-family="Inter, Segoe UI, sans-serif" font-size="12">Mutator</text>
  <text x="42" y="158" fill="#F4F9FF" font-family="Inter, Segoe UI, sans-serif" font-size="18" font-weight="700">EMP Slot Lock</text>
  <rect x="42" y="174" width="176" height="10" rx="3" fill="#0D1524"/>
  <rect x="42" y="174" width="112" height="10" rx="3" fill="#3B8EDF"/>

  <text x="269" y="136" fill="#9CB2CF" font-family="Inter, Segoe UI, sans-serif" font-size="12">Boss Phase</text>
  <text x="269" y="158" fill="#F4F9FF" font-family="Inter, Segoe UI, sans-serif" font-size="18" font-weight="700">Signal Warden II</text>
  <rect x="269" y="174" width="176" height="10" rx="3" fill="#0D1524"/>
  <rect x="269" y="174" width="138" height="10" rx="3" fill="#3B8EDF"/>

  <text x="496" y="136" fill="#9CB2CF" font-family="Inter, Segoe UI, sans-serif" font-size="12">Loadout</text>
  <text x="496" y="158" fill="#F4F9FF" font-family="Inter, Segoe UI, sans-serif" font-size="18" font-weight="700">Volt Dancer</text>
  <rect x="496" y="174" width="176" height="10" rx="3" fill="#0D1524"/>
  <rect x="496" y="174" width="94" height="10" rx="3" fill="#3B8EDF"/>

  <rect x="26" y="248" width="668" height="146" rx="4" fill="#152338" stroke="rgba(255,255,255,0.08)"/>
  <rect x="42" y="268" width="112" height="10" rx="3" fill="#3B8EDF"/>
  <rect x="42" y="288" width="188" height="8" rx="3" fill="rgba(255,255,255,0.16)"/>
  <rect x="42" y="304" width="168" height="8" rx="3" fill="rgba(255,255,255,0.12)"/>
  <rect x="42" y="320" width="144" height="8" rx="3" fill="rgba(255,255,255,0.12)"/>

  <rect x="372" y="266" width="302" height="108" rx="4" fill="#172740" stroke="rgba(255,255,255,0.08)"/>
  <path d="M390 345L430 300L474 320L512 282L560 336L603 300L656 350" stroke="#3B8EDF" stroke-width="4" stroke-linecap="round" stroke-linejoin="round"/>
  <circle cx="430" cy="300" r="5" fill="#DCEBFF"/>
  <circle cx="512" cy="282" r="5" fill="#DCEBFF"/>
  <circle cx="603" cy="300" r="5" fill="#DCEBFF"/>
</svg>
