<svg width="960" height="512" viewBox="0 0 960 512" xmlns="http://www.w3.org/2000/svg">
  <rect width="960" height="512" fill="#0A1220"/>
  <g shape-rendering="crispEdges">
    <!-- tile grid -->
    <g stroke="#1A2D48" stroke-width="1" opacity="0.5">
      <path d="M64 64H896M64 128H896M64 192H896M64 256H896M64 320H896M64 384H896M64 448H896"/>
      <path d="M64 64V448M128 64V448M192 64V448M256 64V448M320 64V448M384 64V448M448 64V448M512 64V448M576 64V448M640 64V448M704 64V448M768 64V448M832 64V448M896 64V448"/>
    </g>

    <!-- ground tiles -->
    <rect x="64" y="64" width="64" height="64" fill="#1A2D48"/>
    <rect x="128" y="64" width="64" height="64" fill="#223B5A"/>
    <rect x="192" y="64" width="64" height="64" fill="#1A2D48"/>
    <rect x="256" y="64" width="64" height="64" fill="#223B5A"/>
    <rect x="320" y="64" width="64" height="64" fill="#1A2D48"/>
    <rect x="384" y="64" width="64" height="64" fill="#223B5A"/>
    <rect x="448" y="64" width="64" height="64" fill="#1A2D48"/>

    <!-- neon edge tiles -->
    <rect x="64" y="128" width="64" height="64" fill="#1A2D48"/>
    <rect x="64" y="128" width="64" height="8" fill="#7EE7FF"/>
    <rect x="128" y="128" width="64" height="64" fill="#223B5A"/>
    <rect x="128" y="128" width="64" height="8" fill="#3B8EDF"/>
    <rect x="192" y="128" width="64" height="64" fill="#1A2D48"/>
    <rect x="192" y="128" width="64" height="8" fill="#9D4DFF"/>

    <!-- hazard -->
    <rect x="320" y="128" width="64" height="64" fill="#3B8EDF"/>
    <rect x="328" y="136" width="48" height="48" fill="#7EE7FF"/>
    <rect x="336" y="144" width="32" height="32" fill="#D8F4FF"/>

    <!-- prop tiles -->
    <rect x="64" y="256" width="64" height="64" fill="#121D2F"/>
    <rect x="88" y="224" width="16" height="32" fill="#3B8EDF"/>
    <rect x="80" y="216" width="32" height="8" fill="#7EE7FF"/>

    <rect x="128" y="256" width="64" height="64" fill="#121D2F"/>
    <rect x="144" y="224" width="32" height="32" fill="#2E4E73"/>
    <rect x="152" y="232" width="16" height="16" fill="#9D4DFF"/>

    <rect x="192" y="256" width="64" height="64" fill="#121D2F"/>
    <rect x="200" y="224" width="48" height="32" fill="#2E4E73"/>
    <rect x="208" y="232" width="32" height="8" fill="#7EE7FF"/>
    <rect x="208" y="244" width="32" height="4" fill="#3B8EDF"/>
  </g>

  <g fill="#A9C2DF" font-family="Consolas, monospace" font-size="14">
    <text x="64" y="34">NEON RUINS TILESET EXAMPLE (16-BIT STYLE)</text>
    <text x="560" y="94">Ground</text>
    <text x="560" y="158">Neon edges</text>
    <text x="560" y="222">Hazard tile</text>
    <text x="560" y="286">Props and signs</text>
  </g>
</svg>
