<svg width="1280" height="720" viewBox="0 0 1280 720" xmlns="http://www.w3.org/2000/svg">
  <rect width="1280" height="720" fill="#0A1220"/>
  <g shape-rendering="crispEdges">
    <rect y="520" width="1280" height="200" fill="#101B2B"/>
    <rect y="560" width="1280" height="160" fill="#0D1524"/>

    <!-- skyline -->
    <g opacity="0.55">
      <rect x="80" y="300" width="70" height="220" fill="#1A2D48"/>
      <rect x="170" y="250" width="84" height="270" fill="#1A2D48"/>
      <rect x="286" y="290" width="62" height="230" fill="#1A2D48"/>
      <rect x="930" y="280" width="76" height="240" fill="#1A2D48"/>
      <rect x="1030" y="230" width="92" height="290" fill="#1A2D48"/>
      <rect x="1146" y="300" width="64" height="220" fill="#1A2D48"/>
    </g>

    <!-- platforms -->
    <rect x="120" y="470" width="180" height="24" fill="#223B5A"/>
    <rect x="120" y="466" width="180" height="4" fill="#7EE7FF"/>
    <rect x="390" y="430" width="220" height="24" fill="#223B5A"/>
    <rect x="390" y="426" width="220" height="4" fill="#3B8EDF"/>
    <rect x="710" y="390" width="180" height="24" fill="#223B5A"/>
    <rect x="710" y="386" width="180" height="4" fill="#9D4DFF"/>

    <!-- hero -->
    <rect x="454" y="382" width="24" height="10" fill="#2E4E73"/>
    <rect x="448" y="392" width="36" height="16" fill="#3B8EDF"/>
    <rect x="452" y="408" width="10" height="18" fill="#7AA3D1"/>
    <rect x="470" y="408" width="10" height="18" fill="#7AA3D1"/>
    <rect x="482" y="396" width="22" height="6" fill="#D8F4FF"/>
    <rect x="490" y="402" width="20" height="6" fill="#7EE7FF"/>

    <!-- enemy -->
    <rect x="780" y="332" width="30" height="14" fill="#2E4E73"/>
    <rect x="772" y="346" width="46" height="30" fill="#3B8EDF"/>
    <rect x="782" y="354" width="10" height="8" fill="#D8F4FF"/>
    <rect x="798" y="354" width="10" height="8" fill="#D8F4FF"/>
    <rect x="788" y="366" width="14" height="6" fill="#9D4DFF"/>

    <!-- rift -->
    <rect x="620" y="180" width="8" height="220" fill="#7EE7FF"/>
    <rect x="628" y="170" width="8" height="240" fill="#3B8EDF"/>
    <rect x="636" y="184" width="8" height="210" fill="#9D4DFF"/>

    <!-- UI -->
    <rect x="24" y="24" width="340" height="72" fill="#0F1A2B"/>
    <rect x="32" y="36" width="120" height="10" fill="#7EE7FF"/>
    <rect x="32" y="52" width="200" height="8" fill="#9CB2CF"/>
    <rect x="32" y="68" width="240" height="8" fill="#3B8EDF"/>

    <rect x="936" y="24" width="320" height="72" fill="#0F1A2B"/>
    <rect x="944" y="36" width="220" height="12" fill="#9D4DFF"/>
    <rect x="944" y="56" width="280" height="10" fill="#3B8EDF"/>
  </g>

  <g fill="#CBE3FF" font-family="Consolas, monospace" font-size="18">
    <text x="24" y="692">RIFT COURIER // 16-BIT SCENE MOCKUP</text>
  </g>
</svg>
