<svg width="1400" height="900" viewBox="0 0 1400 900" fill="none" xmlns="http://www.w3.org/2000/svg">
  <defs>
    <linearGradient id="sky" x1="170" y1="90" x2="1210" y2="790" gradientUnits="userSpaceOnUse">
      <stop stop-color="#0A1120"/>
      <stop offset="0.6" stop-color="#14263D"/>
      <stop offset="1" stop-color="#1C3150"/>
    </linearGradient>
    <linearGradient id="railGlow" x1="0" y1="0" x2="1" y2="0">
      <stop stop-color="#3B8EDF"/>
      <stop offset="0.55" stop-color="#7EE7FF"/>
      <stop offset="1" stop-color="#9D4DFF"/>
    </linearGradient>
  </defs>

  <rect width="1400" height="900" fill="url(#sky)"/>
  <rect y="560" width="1400" height="340" fill="#0E1828"/>

  <path d="M0 590L140 550L260 580L390 520L520 560L650 500L780 550L920 490L1080 530L1230 480L1400 520V900H0V590Z" fill="#172740"/>
  <path d="M0 640L130 600L260 630L410 570L530 620L680 560L810 610L950 550L1100 590L1260 540L1400 580V900H0V640Z" fill="#1A2D48"/>

  <g opacity="0.45">
    <rect x="110" y="350" width="70" height="210" fill="#1D3558"/>
    <rect x="210" y="290" width="86" height="270" fill="#1D3558"/>
    <rect x="336" y="330" width="58" height="230" fill="#1D3558"/>
    <rect x="960" y="310" width="74" height="250" fill="#1D3558"/>
    <rect x="1060" y="260" width="90" height="300" fill="#1D3558"/>
    <rect x="1180" y="345" width="60" height="215" fill="#1D3558"/>
  </g>

  <g opacity="0.82">
    <path d="M150 470H1260" stroke="url(#railGlow)" stroke-width="6"/>
    <path d="M120 505H1280" stroke="url(#railGlow)" stroke-opacity="0.7" stroke-width="4"/>
    <path d="M220 540H1180" stroke="url(#railGlow)" stroke-opacity="0.4" stroke-width="3"/>
  </g>

  <g opacity="0.5">
    <circle cx="390" cy="220" r="84" fill="#3B8EDF" fill-opacity="0.2"/>
    <circle cx="920" cy="170" r="62" fill="#9D4DFF" fill-opacity="0.18"/>
    <circle cx="1020" cy="240" r="28" fill="#7EE7FF" fill-opacity="0.28"/>
  </g>

  <g opacity="0.9">
    <path d="M500 585L550 530L610 560L645 525L700 575L758 518L820 580" stroke="#9FDBFF" stroke-width="8" stroke-linecap="round"/>
    <circle cx="550" cy="530" r="10" fill="#7EE7FF"/>
    <circle cx="700" cy="575" r="10" fill="#7EE7FF"/>
    <circle cx="758" cy="518" r="10" fill="#7EE7FF"/>
  </g>
</svg>
