<svg width="1100" height="340" viewBox="0 0 1100 340" fill="none" xmlns="http://www.w3.org/2000/svg">
  <defs>
    <linearGradient id="titleGrad" x1="0" y1="0" x2="1" y2="1">
      <stop offset="0" stop-color="#E7F7FF"/>
      <stop offset="0.4" stop-color="#8FD5FF"/>
      <stop offset="1" stop-color="#3B8EDF"/>
    </linearGradient>
    <linearGradient id="accentGrad" x1="0" y1="0" x2="1" y2="0">
      <stop offset="0" stop-color="#7EE7FF"/>
      <stop offset="1" stop-color="#9D4DFF"/>
    </linearGradient>
    <filter id="softGlow" x="-120" y="-120" width="1340" height="580" filterUnits="userSpaceOnUse">
      <feGaussianBlur stdDeviation="10"/>
    </filter>
  </defs>

  <rect x="16" y="24" width="1068" height="292" rx="10" fill="rgba(10,17,32,0.62)" stroke="rgba(255,255,255,0.16)" />

  <g filter="url(#softGlow)" opacity="0.5">
    <path d="M48 84H1050" stroke="url(#accentGrad)" stroke-width="4"/>
    <path d="M48 266H1050" stroke="url(#accentGrad)" stroke-width="4"/>
  </g>

  <text x="80" y="152" fill="url(#titleGrad)" font-family="Segoe UI, Inter, sans-serif" font-size="96" font-weight="900" letter-spacing="6">RIFT</text>
  <text x="80" y="248" fill="url(#titleGrad)" font-family="Segoe UI, Inter, sans-serif" font-size="96" font-weight="900" letter-spacing="6">COURIER</text>

  <g transform="translate(780 92)">
    <path d="M40 130L10 74L36 22L92 10L142 34L160 86L132 142L72 160L40 130Z" fill="#1A2D48" stroke="rgba(255,255,255,0.25)" stroke-width="2"/>
    <path d="M64 36L90 48L98 76L80 104L50 108L30 86L36 56L64 36Z" fill="#7EE7FF"/>
    <path d="M84 6L104 26L92 46L72 28L84 6Z" fill="#9D4DFF"/>
    <path d="M126 58L150 74L138 100L116 84L126 58Z" fill="#3B8EDF"/>
  </g>

  <text x="784" y="258" fill="#9CB2CF" font-family="Segoe UI, Inter, sans-serif" font-size="18" font-weight="700" letter-spacing="2">WEEK 01 // NEON RUINS</text>
</svg>
