<svg width="960" height="540" viewBox="0 0 960 540" xmlns="http://www.w3.org/2000/svg">
  <rect width="960" height="540" fill="#0D1524"/>
  <rect x="12" y="12" width="936" height="516" rx="10" fill="#152338" stroke="rgba(255,255,255,0.14)"/>
  <g transform="translate(48 56)">
    <rect x="0" y="0" width="864" height="120" rx="12" fill="#111C2E" stroke="rgba(255,255,255,0.1)"/>
    <rect x="28" y="34" width="180" height="16" rx="8" fill="#7EE7FF"/>
    <rect x="28" y="58" width="240" height="12" rx="6" fill="#9CB2CF"/>
    <circle cx="748" cy="60" r="18" fill="#3B8EDF"/>
    <circle cx="748" cy="60" r="8" fill="#D8F4FF"/>
  </g>
  <g transform="translate(48 194)">
    <rect x="0" y="0" width="420" height="286" rx="12" fill="#111C2E" stroke="rgba(255,255,255,0.1)"/>
    <rect x="24" y="24" width="120" height="12" rx="6" fill="#7EE7FF"/>
    <rect x="24" y="50" width="196" height="10" rx="5" fill="#9CB2CF"/>
    <rect x="24" y="86" width="372" height="44" rx="10" fill="#1A2D48" stroke="rgba(255,255,255,0.14)"/>
    <rect x="36" y="102" width="210" height="10" rx="5" fill="#DCEBFF"/>
    <rect x="24" y="144" width="336" height="36" rx="10" fill="#3B8EDF"/>
    <rect x="24" y="192" width="336" height="36" rx="10" fill="#1A2D48" stroke="rgba(255,255,255,0.14)"/>
    <rect x="24" y="240" width="260" height="10" rx="5" fill="#7EE7FF"/>
  </g>
  <g transform="translate(494 194)">
    <rect x="0" y="0" width="418" height="286" rx="12" fill="#111C2E" stroke="rgba(255,255,255,0.1)"/>
    <rect x="24" y="24" width="148" height="12" rx="6" fill="#7EE7FF"/>
    <rect x="24" y="50" width="220" height="10" rx="5" fill="#9CB2CF"/>
    <g transform="translate(48 86)">
      <rect x="0" y="0" width="322" height="134" rx="14" fill="#1A2D48" stroke="rgba(255,255,255,0.14)"/>
      <circle cx="118" cy="60" r="18" fill="#D8F4FF"/>
      <circle cx="206" cy="60" r="18" fill="#D8F4FF"/>
      <rect x="92" y="96" width="140" height="12" rx="6" fill="#7EE7FF"/>
      <path d="M58 30L84 42M264 42L290 30" stroke="#7EE7FF" stroke-width="6" stroke-linecap="round"/>
    </g>
  </g>
</svg>
