<svg width="640" height="640" viewBox="0 0 640 640" xmlns="http://www.w3.org/2000/svg">
  <rect width="640" height="640" fill="#0A1220"/>
  <g shape-rendering="crispEdges">
    <rect x="240" y="72" width="160" height="24" fill="#1F3048"/>
    <rect x="216" y="96" width="208" height="40" fill="#273E5C"/>
    <rect x="192" y="136" width="256" height="56" fill="#325A84"/>
    <rect x="176" y="192" width="288" height="112" fill="#3B8EDF"/>
    <rect x="184" y="304" width="272" height="96" fill="#2E4E73"/>
    <rect x="208" y="400" width="224" height="120" fill="#1F3048"/>

    <rect x="256" y="232" width="40" height="24" fill="#D8F4FF"/>
    <rect x="344" y="232" width="40" height="24" fill="#D8F4FF"/>
    <rect x="296" y="264" width="48" height="24" fill="#7EE7FF"/>
    <rect x="304" y="288" width="32" height="16" fill="#9D4DFF"/>

    <rect x="128" y="224" width="48" height="32" fill="#1F3048"/>
    <rect x="96" y="256" width="80" height="64" fill="#2E4E73"/>
    <rect x="80" y="320" width="96" height="56" fill="#1F3048"/>

    <rect x="464" y="224" width="48" height="32" fill="#1F3048"/>
    <rect x="464" y="256" width="80" height="64" fill="#2E4E73"/>
    <rect x="464" y="320" width="96" height="56" fill="#1F3048"/>

    <rect x="240" y="520" width="56" height="80" fill="#1A2D48"/>
    <rect x="344" y="520" width="56" height="80" fill="#1A2D48"/>

    <rect x="120" y="88" width="16" height="16" fill="#7EE7FF"/>
    <rect x="504" y="112" width="16" height="16" fill="#7EE7FF"/>
    <rect x="144" y="528" width="16" height="16" fill="#7EE7FF"/>
    <rect x="488" y="544" width="16" height="16" fill="#7EE7FF"/>
  </g>

  <circle cx="320" cy="180" r="190" fill="none" stroke="#7EE7FF" stroke-opacity="0.22" stroke-width="8"/>
  <circle cx="320" cy="180" r="150" fill="none" stroke="#9D4DFF" stroke-opacity="0.2" stroke-width="6"/>

  <g fill="#A9C2DF" font-family="Consolas, monospace" font-size="16">
    <text x="20" y="34">SIGNAL WARDEN // 16-BIT BOSS KEY</text>
  </g>
</svg>
