<svg width="768" height="256" viewBox="0 0 768 256" xmlns="http://www.w3.org/2000/svg">
  <rect width="768" height="256" fill="#0B1320"/>
  <g shape-rendering="crispEdges">
    <defs>
      <g id="heroIdle">
        <rect x="0" y="0" width="64" height="64" fill="#121D2F"/>
        <rect x="24" y="8" width="16" height="8" fill="#20334A"/>
        <rect x="20" y="16" width="24" height="8" fill="#2E4E73"/>
        <rect x="16" y="24" width="32" height="16" fill="#3B8EDF"/>
        <rect x="20" y="40" width="8" height="12" fill="#7AA3D1"/>
        <rect x="36" y="40" width="8" height="12" fill="#7AA3D1"/>
        <rect x="28" y="20" width="8" height="4" fill="#D8F4FF"/>
        <rect x="48" y="26" width="12" height="4" fill="#9D4DFF"/>
      </g>
      <g id="heroRun1">
        <rect x="0" y="0" width="64" height="64" fill="#121D2F"/>
        <rect x="24" y="8" width="16" height="8" fill="#20334A"/>
        <rect x="20" y="16" width="24" height="8" fill="#2E4E73"/>
        <rect x="14" y="24" width="34" height="16" fill="#3B8EDF"/>
        <rect x="16" y="40" width="8" height="12" fill="#7AA3D1"/>
        <rect x="38" y="42" width="8" height="10" fill="#7AA3D1"/>
        <rect x="30" y="20" width="8" height="4" fill="#D8F4FF"/>
        <rect x="48" y="24" width="14" height="4" fill="#7EE7FF"/>
        <rect x="52" y="28" width="10" height="4" fill="#9D4DFF"/>
      </g>
      <g id="heroRun2">
        <rect x="0" y="0" width="64" height="64" fill="#121D2F"/>
        <rect x="24" y="8" width="16" height="8" fill="#20334A"/>
        <rect x="20" y="16" width="24" height="8" fill="#2E4E73"/>
        <rect x="14" y="24" width="34" height="16" fill="#3B8EDF"/>
        <rect x="18" y="42" width="8" height="10" fill="#7AA3D1"/>
        <rect x="40" y="40" width="8" height="12" fill="#7AA3D1"/>
        <rect x="30" y="20" width="8" height="4" fill="#D8F4FF"/>
        <rect x="48" y="22" width="14" height="4" fill="#7EE7FF"/>
        <rect x="54" y="26" width="8" height="4" fill="#9D4DFF"/>
      </g>
      <g id="heroSlash">
        <rect x="0" y="0" width="64" height="64" fill="#121D2F"/>
        <rect x="24" y="8" width="16" height="8" fill="#20334A"/>
        <rect x="20" y="16" width="24" height="8" fill="#2E4E73"/>
        <rect x="14" y="24" width="34" height="16" fill="#3B8EDF"/>
        <rect x="20" y="40" width="8" height="12" fill="#7AA3D1"/>
        <rect x="36" y="40" width="8" height="12" fill="#7AA3D1"/>
        <rect x="30" y="20" width="8" height="4" fill="#D8F4FF"/>
        <rect x="48" y="18" width="16" height="6" fill="#D8F4FF"/>
        <rect x="52" y="24" width="16" height="6" fill="#7EE7FF"/>
        <rect x="56" y="30" width="14" height="6" fill="#3B8EDF"/>
      </g>
    </defs>

    <use href="#heroIdle" x="32" y="64"/>
    <use href="#heroRun1" x="160" y="64"/>
    <use href="#heroRun2" x="288" y="64"/>
    <use href="#heroSlash" x="416" y="64"/>

    <rect x="544" y="64" width="96" height="96" fill="#121D2F"/>
    <rect x="568" y="88" width="16" height="16" fill="#2E4E73"/>
    <rect x="560" y="104" width="32" height="24" fill="#3B8EDF"/>
    <rect x="568" y="128" width="8" height="16" fill="#7AA3D1"/>
    <rect x="584" y="128" width="8" height="16" fill="#7AA3D1"/>
    <rect x="596" y="102" width="28" height="8" fill="#D8F4FF"/>
    <rect x="604" y="110" width="28" height="8" fill="#7EE7FF"/>
    <rect x="612" y="118" width="24" height="8" fill="#9D4DFF"/>
  </g>

  <g fill="#9CB2CF" font-family="Consolas, monospace" font-size="14">
    <text x="40" y="36">IDLE</text>
    <text x="168" y="36">RUN_1</text>
    <text x="296" y="36">RUN_2</text>
    <text x="424" y="36">SLASH</text>
    <text x="548" y="36">HERO + BLADE FX</text>
  </g>
</svg>
