<svg width="1400" height="900" viewBox="0 0 1400 900" fill="none" xmlns="http://www.w3.org/2000/svg">
  <defs>
    <linearGradient id="bg" x1="120" y1="80" x2="1180" y2="820" gradientUnits="userSpaceOnUse">
      <stop stop-color="#0C1424"/>
      <stop offset="1" stop-color="#1A2D48"/>
    </linearGradient>
    <linearGradient id="line" x1="0" y1="0" x2="1" y2="0">
      <stop stop-color="#3B8EDF"/>
      <stop offset="1" stop-color="#7EE7FF"/>
    </linearGradient>
  </defs>
  <rect width="1400" height="900" rx="14" fill="url(#bg)"/>
  <rect x="8" y="8" width="1384" height="884" rx="8" stroke="rgba(255,255,255,0.12)"/>

  <rect x="28" y="30" width="1344" height="110" rx="8" fill="#111C2E" stroke="rgba(255,255,255,0.08)"/>
  <rect x="60" y="70" width="260" height="14" rx="6" fill="#7EE7FF" fill-opacity="0.7"/>
  <rect x="60" y="96" width="180" height="10" rx="5" fill="#9CB2CF" fill-opacity="0.42"/>

  <g>
    <rect x="28" y="166" width="430" height="250" rx="8" fill="#172740" stroke="rgba(255,255,255,0.08)"/>
    <rect x="56" y="198" width="180" height="12" rx="6" fill="#7EE7FF" fill-opacity="0.65"/>
    <rect x="56" y="226" width="300" height="10" rx="5" fill="#9CB2CF" fill-opacity="0.35"/>
    <rect x="56" y="268" width="332" height="16" rx="8" fill="#0D1524"/>
    <rect x="56" y="268" width="210" height="16" rx="8" fill="url(#line)"/>
    <rect x="56" y="304" width="332" height="16" rx="8" fill="#0D1524"/>
    <rect x="56" y="304" width="262" height="16" rx="8" fill="url(#line)"/>
  </g>

  <g>
    <rect x="486" y="166" width="430" height="250" rx="8" fill="#172740" stroke="rgba(255,255,255,0.08)"/>
    <circle cx="702" cy="288" r="84" stroke="#7EE7FF" stroke-opacity="0.6" stroke-width="10"/>
    <circle cx="702" cy="288" r="52" stroke="#3B8EDF" stroke-opacity="0.8" stroke-width="10"/>
    <path d="M702 214V288L748 320" stroke="#D5EEFF" stroke-width="8" stroke-linecap="round"/>
  </g>

  <g>
    <rect x="944" y="166" width="428" height="250" rx="8" fill="#172740" stroke="rgba(255,255,255,0.08)"/>
    <rect x="976" y="206" width="364" height="16" rx="8" fill="#0D1524"/>
    <rect x="976" y="206" width="218" height="16" rx="8" fill="url(#line)"/>
    <rect x="976" y="246" width="364" height="16" rx="8" fill="#0D1524"/>
    <rect x="976" y="246" width="280" height="16" rx="8" fill="url(#line)"/>
    <rect x="976" y="286" width="364" height="16" rx="8" fill="#0D1524"/>
    <rect x="976" y="286" width="144" height="16" rx="8" fill="url(#line)"/>
  </g>

  <rect x="28" y="444" width="1344" height="428" rx="8" fill="#111C2E" stroke="rgba(255,255,255,0.08)"/>
  <path d="M70 780L170 710L246 740L340 670L444 740L540 660L640 734L748 620L870 710L978 590L1098 700L1206 650L1320 720" stroke="url(#line)" stroke-width="8" stroke-linecap="round"/>
  <circle cx="340" cy="670" r="12" fill="#7EE7FF"/>
  <circle cx="748" cy="620" r="12" fill="#7EE7FF"/>
  <circle cx="978" cy="590" r="12" fill="#7EE7FF"/>
</svg>
