<svg width="1920" height="1080" viewBox="0 0 1920 1080" fill="none" xmlns="http://www.w3.org/2000/svg">
  <defs>
    <linearGradient id="bgGrad" x1="220" y1="80" x2="1580" y2="980" gradientUnits="userSpaceOnUse">
      <stop stop-color="#080E1A"/>
      <stop offset="0.55" stop-color="#13253B"/>
      <stop offset="1" stop-color="#1C3252"/>
    </linearGradient>
    <linearGradient id="riftGrad" x1="0" y1="0" x2="1" y2="1">
      <stop offset="0" stop-color="#9D4DFF"/>
      <stop offset="0.5" stop-color="#3B8EDF"/>
      <stop offset="1" stop-color="#7EE7FF"/>
    </linearGradient>
    <linearGradient id="bladeGrad" x1="0" y1="0" x2="0" y2="1">
      <stop stop-color="#D8F4FF"/>
      <stop offset="1" stop-color="#3B8EDF"/>
    </linearGradient>
    <radialGradient id="sunGrad" cx="0" cy="0" r="1" gradientUnits="userSpaceOnUse" gradientTransform="translate(1460 250) rotate(90) scale(420 420)">
      <stop stop-color="#3B8EDF" stop-opacity="0.45"/>
      <stop offset="1" stop-color="#3B8EDF" stop-opacity="0"/>
    </radialGradient>
    <filter id="glow" x="-200" y="-200" width="2400" height="1400" filterUnits="userSpaceOnUse">
      <feGaussianBlur stdDeviation="12" result="blur"/>
      <feMerge>
        <feMergeNode in="blur"/>
        <feMergeNode in="SourceGraphic"/>
      </feMerge>
    </filter>
  </defs>

  <rect width="1920" height="1080" fill="url(#bgGrad)"/>
  <rect width="1920" height="1080" fill="url(#sunGrad)"/>

  <path d="M1080 0L1300 170L980 290L1250 460L890 560L1140 780L770 850L960 1080" stroke="url(#riftGrad)" stroke-opacity="0.55" stroke-width="10" filter="url(#glow)"/>
  <path d="M950 0L1110 160L860 260L1090 430L800 520L980 700L700 780L860 1080" stroke="#8CCBFF" stroke-opacity="0.2" stroke-width="4"/>

  <g opacity="0.3">
    <path d="M0 760L210 690L380 740L560 640L770 690L980 600L1180 660L1380 580L1600 630L1920 520V1080H0V760Z" fill="#172740"/>
    <path d="M0 820L240 740L390 790L600 700L780 760L980 670L1210 730L1410 660L1630 720L1920 620V1080H0V820Z" fill="#0D1524"/>
  </g>

  <g opacity="0.28">
    <rect x="180" y="420" width="62" height="320" fill="#1A2D48"/>
    <rect x="270" y="360" width="72" height="380" fill="#1A2D48"/>
    <rect x="380" y="410" width="54" height="330" fill="#1A2D48"/>
    <rect x="1510" y="320" width="88" height="420" fill="#1A2D48"/>
    <rect x="1630" y="390" width="64" height="350" fill="#1A2D48"/>
  </g>

  <g transform="translate(870 390)">
    <path d="M120 370L50 220L90 70L250 30L390 130L350 300L220 390L120 370Z" fill="#1A2D48" stroke="#7AA7D8" stroke-opacity="0.38" stroke-width="3"/>
    <path d="M140 90L185 110L170 165L108 170L82 130L100 95L140 90Z" fill="#3B8EDF"/>
    <path d="M250 150L300 185L288 245L226 265L180 225L195 170L250 150Z" fill="#3B8EDF"/>
    <path d="M74 205L118 222L129 270L82 304L28 286L20 235L74 205Z" fill="#3B8EDF"/>
    <path d="M112 366L145 248L188 188L215 248L170 372L112 366Z" fill="#121D2F"/>
  </g>

  <g transform="translate(1060 210) rotate(23)">
    <rect x="0" y="0" width="34" height="430" rx="9" fill="url(#bladeGrad)" filter="url(#glow)"/>
    <rect x="-12" y="375" width="58" height="30" rx="8" fill="#1A2D48" stroke="#A7D2FF" stroke-opacity="0.45"/>
  </g>

  <g opacity="0.35">
    <circle cx="1320" cy="180" r="5" fill="#7EE7FF"/>
    <circle cx="1390" cy="230" r="4" fill="#7EE7FF"/>
    <circle cx="1470" cy="290" r="6" fill="#7EE7FF"/>
    <circle cx="1540" cy="360" r="3" fill="#7EE7FF"/>
    <circle cx="1260" cy="300" r="4" fill="#7EE7FF"/>
  </g>
</svg>
